<svg width="132" height="43" viewBox="0 0 132 43" fill="none" xmlns="http://www.w3.org/2000/svg">
<g id="Group 4">
<g id="Group">
<path id="Vector" d="M69.7027 40.9077C69.4672 38.9687 69.6705 36.8288 69.6705 34.8551C69.6705 31.5176 69.6705 28.1776 69.6705 24.8402C69.6705 18.19 69.6705 11.5398 69.6705 4.89215C69.6705 4.7161 69.6705 1.48772 69.6705 1.48772H72.5344C73.9229 1.48772 75.8099 1.1629 77.0497 1.85221C78.5473 2.68534 79.5788 4.11357 79.5788 5.83438C79.5788 6.75429 79.5788 7.67173 79.5788 8.59164C79.5788 11.7258 79.5813 14.86 79.5838 17.9916C79.5838 21.5622 79.5887 25.1327 79.5887 28.7058C79.5887 30.9994 79.559 33.2954 79.5912 35.5865C79.6259 38.014 78.4085 40.4688 75.8049 40.8556C75.3908 40.9176 74.9693 40.9176 74.5503 40.9176C72.9336 40.9176 71.3145 40.9349 69.6978 40.9101L69.7027 40.9077ZM71.4062 39.1769C71.4112 39.3133 75.0586 39.2141 75.4206 39.1373C77.2332 38.743 77.7935 37.5404 78.1109 35.8395C78.1109 33.9203 78.1109 32.0011 78.1109 30.0819C78.1109 26.1221 78.1109 22.1622 78.1109 18.2049C78.1109 14.8252 78.0737 11.4431 78.1084 8.06598C78.1184 7.11135 78.1382 6.17408 77.8158 5.25912C77.5902 4.62188 77.1935 4.01934 76.6331 3.62757C75.9438 3.14654 75.0214 3.14406 74.2155 3.17877C73.9081 3.19117 71.4087 3.26556 71.4087 3.22341C71.4087 3.22341 71.4087 39.0629 71.4087 39.1769H71.4062Z" fill="#EDF2F4"/>
<path id="Vector_2" d="M57.2704 1.4877C57.2778 1.86955 57.2654 20.6918 57.2753 22.4176C57.3026 26.6428 57.315 30.8679 57.3373 35.0931C57.3447 36.3601 57.6299 37.8776 58.6837 38.7058C60.2905 39.9704 62.7824 38.8992 63.4767 37.1238C63.8932 36.0601 63.8784 34.8823 63.861 33.7417C63.6924 22.9929 63.6552 12.239 63.7494 1.4877C64.3346 1.4877 64.9223 1.4877 65.5074 1.48522C65.5347 12.1845 65.5595 22.8813 65.5868 33.5806C65.5893 35.0584 65.5818 36.5883 64.9644 37.9297C64.2354 39.5117 62.6435 40.6646 60.9103 40.863C58.6217 41.1258 56.3777 39.7918 55.7677 37.5429C55.3487 35.9907 55.5223 34.2848 55.5421 32.6929C55.6264 25.7625 55.5495 18.8297 55.5297 11.8969C55.5297 8.42301 55.5347 4.95164 55.5347 1.47778C56.1124 1.47778 56.6901 1.47778 57.2679 1.48274L57.2704 1.4877Z" fill="#EDF2F4"/>
<path id="Vector_3" d="M37.1883 13.6376H35.4526V8.65121C35.4526 7.37672 35.6857 5.9361 35.1526 4.73104C34.4583 3.16148 32.6284 3.00775 31.1159 3.22595C29.8711 3.40696 28.8967 4.91701 28.7677 6.08488C28.5024 8.46525 28.609 12.5069 29.5537 14.6988C31.3043 18.7628 36.8288 25.8469 37.1957 29.8688C37.3395 31.4507 37.3891 35.5321 37.1362 37.0173C36.8883 38.4802 35.6014 40.03 34.2178 40.5457C31.6961 41.483 28.6214 40.5928 27.5131 38.0215C27.1982 37.2901 27.2453 28.5149 27.2701 28.5149H28.7578V32.4252C28.7578 34.689 28.1305 37.9819 30.8282 38.991C32.5565 39.6357 35.3361 39.0332 35.4501 36.8214C35.6039 33.8336 35.5419 32.8269 35.4625 29.8712C33.9624 24.7138 30.2034 20.1415 27.9619 15.3039C27.766 14.8799 27.3941 13.8955 27.3197 13.4665C27.042 11.8424 27.1238 10.1067 27.1387 8.46525C27.1635 5.66583 27.2949 2.69781 30.4142 1.68367C32.6532 0.95716 35.5146 1.69855 36.6552 3.88055C36.7568 4.07644 37.1883 5.01867 37.1883 5.08314V13.6376Z" fill="#EDF2F4"/>
<path id="Vector_4" d="M51.3219 1.48767C51.312 2.17947 51.3318 2.40015 51.3318 3.22336H46.3628V40.9126H44.6271V3.22336H39.668V1.48767H51.3219Z" fill="#EDF2F4"/>
<path id="Vector_5" d="M85.5398 1.48767H83.8041V40.9126H85.5398V1.48767Z" fill="#EDF2F4"/>
<path id="Vector_6" d="M118.518 8.67839L119.765 9.5388C121.632 11.8076 120.821 14.9343 118.198 16.1691C115.089 17.6321 110.881 15.7873 110.831 12.1498H112.567C112.046 15.5939 118.364 15.9956 118.969 13.2209C119.621 10.2331 117.028 9.45201 114.548 9.67021V8.18248C116.008 8.56185 118.649 7.55515 118.523 5.84178C118.317 3.087 113.638 3.09196 112.862 5.63102C112.634 6.37985 113.164 6.66004 111.692 6.45423C110.583 6.3005 111.454 4.58465 111.942 3.96228C113.574 1.88689 117.107 1.53232 119.006 3.35479C120.425 4.71606 120.554 7.9494 118.518 8.68087V8.67839Z" fill="#EDF2F4"/>
<path id="Vector_7" d="M125.634 2.28363C133.606 0.867801 133.735 15.7898 127.558 16.6055C119.812 17.6296 119.782 3.32256 125.634 2.28363ZM126.13 3.5234C125.143 3.69201 124.303 4.60201 123.861 5.46985C122.798 7.56259 122.802 11.2918 123.861 13.3747C125.225 16.0575 128.173 16.0551 129.534 13.3747C130.571 11.334 130.591 7.68905 129.619 5.6335C128.947 4.21024 127.764 3.24321 126.128 3.5234H126.13Z" fill="#EDF2F4"/>
<path id="Vector_8" d="M107.608 2.47958V16.3651H106.12V6.44687H102.649V5.20709C103.769 5.40793 105.642 4.69878 106.237 3.7144C106.715 2.92094 106.224 2.21427 107.608 2.48206V2.47958Z" fill="#EDF2F4"/>
<path id="Vector_9" d="M99.683 36.3354C99.7624 31.7234 99.6681 27.1065 99.683 22.4945C99.6929 19.2091 99.6979 15.9237 99.6756 12.6408C99.6607 10.1786 99.7351 7.71142 99.6186 5.24922C99.502 2.77958 96.9679 1.3836 94.7165 1.41583C93.3304 1.43567 92.0187 1.77288 91.0071 2.7771C89.5491 4.22268 89.7474 6.27327 89.7623 8.15278C89.7747 9.64795 89.7623 11.1431 89.7598 12.6408C89.7375 15.9237 89.7425 19.2091 89.7524 22.4945C89.7499 26.8585 89.7598 31.225 89.745 35.589C89.74 37.1313 89.9086 38.4356 91.0616 39.5588C92.0286 40.501 93.38 40.9622 94.719 40.93C97.0968 40.873 99.626 39.3753 99.6756 36.7445C99.6781 36.6081 99.6805 36.4718 99.683 36.3329V36.3354ZM91.4807 36.3354L91.493 5.58148C91.7484 4.51279 92.5295 3.50857 93.6403 3.26558C94.0073 3.18623 94.3669 3.14408 94.719 3.13664C95.0686 3.14408 95.4306 3.18375 95.7976 3.26558C96.9084 3.50857 97.6895 4.51031 97.9449 5.58148L97.9572 36.3354C97.7762 38.2149 96.2637 39.1844 94.719 39.2166C93.1742 39.1844 91.6641 38.2149 91.4807 36.3354Z" fill="#EDF2F4"/>
</g>
<g id="Group_2">
<path id="Vector_10" d="M23.5558 0V42.1524H0V0H23.5558Z" fill="#2B2D42"/>
<path id="Vector_11" d="M21.696 1.98364H1.85962V20.3323H21.696V1.98364Z" stroke="#EDF2F4" stroke-width="0.5" stroke-miterlimit="10"/>
<path id="Vector_12" d="M21.696 25.2914H1.85962V37.1932H21.696V25.2914Z" stroke="#EDF2F4" stroke-width="0.5" stroke-miterlimit="10"/>
<path id="Vector_13" d="M11.7778 24.0814C12.479 24.0814 13.0474 23.513 13.0474 22.8119C13.0474 22.1107 12.479 21.5424 11.7778 21.5424C11.0767 21.5424 10.5083 22.1107 10.5083 22.8119C10.5083 23.513 11.0767 24.0814 11.7778 24.0814Z" fill="#EDF2F4"/>
<g id="Group_3">
<path id="Vector_14" d="M15.3757 26.5931H8.18005V26.9576H15.3757V26.5931Z" fill="#EDF2F4"/>
<path id="Vector_15" d="M15.3757 26.5931H8.18005V26.9576H15.3757V26.5931Z" fill="#EDF2F4"/>
<path id="Vector_16" d="M15.3757 26.5931H8.18005V26.9576H15.3757V26.5931Z" fill="#EDF2F4"/>
<path id="Vector_17" d="M15.3757 26.5931H8.18005V26.9576H15.3757V26.5931Z" fill="#EDF2F4"/>
</g>
</g>
</g>
</svg>
